# xmcd CD database file
#
# Track frame offsets:
#	150
#	31734
#	62604
#	102664
#	132315
#	160747
#	185311
#	221632
#	252450
#
# Disc length: 3903 seconds
#
# Revision: 0
# Processed by: cddbd v1.5.1PL2 Copyright (c) Steve Scherf et al.
# Submitted via: CDex 1.51
#
DISCID=7c0f3d09
DTITLE=naturscapes - Serenity: Music for Total Relaxation
DYEAR=1900
DGENRE=New Age
TTITLE0=Whispering Winds
TTITLE1=Rebirth
TTITLE2=Raindrops
TTITLE3=Harmony
TTITLE4=Morning glory
TTITLE5=Ocean spirit
TTITLE6=Renewal
TTITLE7=Twilight magic
TTITLE8=Nocturnal Lullaby
EXTD=
EXTT0=
EXTT1=
EXTT2=
EXTT3=
EXTT4=
EXTT5=
EXTT6=
EXTT7=
EXTT8=
PLAYORDER=
